# xmcd
#
# Track frame offsets:
#	150
#	21904
#	35870
#	49317
#	63280
#	76188
#	88827
#	103930
#	117056
#	128364
#	139064
#	153046
#	169051
#	181795
#	198049
#	209877
#	222161
#	232987
#	243567
#	255821
#	269829
#
# Disc length: 3857 seconds
#
# Revision: 0
# Processed by: cddbd v1.5.2PL0 Copyright (c) Steve Scherf et al.
# Submitted via: EZCDAudioConverter 1.3.4.1
#
DISCID=230f0f15
DTITLE=V/A - California Funk
DYEAR=2010
DGENRE=
TTITLE0=Water Color - All Bundled Into One
TTITLE1=The 4th Coming - Cruising Down Sunset
TTITLE2=Apple and The Three Oranges - Curse Upon The World
TTITLE3=L.A. Bare Faxx - Super Cool Brother
TTITLE4=Arthur Monday - What Goes Around Comes Around (Part 1)
TTITLE5=Chucky Thurmon - Turn It Over
TTITLE6=California Gold Notes - W.B. 302
TTITLE7=Ray Frazier and The Shades Of Madness - I Who Have Nothing (Am Somebody)
TTITLE8=Rhon Silva - Get It Right
TTITLE9=Enrique Olivarez Y Los Vampiros - Al's Place
TTITLE10=J.G.D. and The New Breed - North Richmond Breakaway
TTITLE11=John Heartsman and Circles - Talking About My Baby
TTITLE12=King Soloman - Politician Rag
TTITLE13=Billy Larkin and The Delegates - Funky Fire
TTITLE14=Leon Gardner - Farm Song
TTITLE15=Lil Lavair and The Fabulous Jades - Cold Heat
TTITLE16=Delores Ealy and The Kenyattas - Honeydripper
TTITLE17=Enrique Olivarez Y Los Vampiros - Arriba Tipo
TTITLE18=Winter - Bones
TTITLE19=Edwards Generation - Smokin' Tidbits
TTITLE20=Mr. Clean and The Soul Inc. - What's Going On
EXTD=
EXTT0=
EXTT1=
EXTT2=
EXTT3=
EXTT4=
EXTT5=
EXTT6=
EXTT7=
EXTT8=
EXTT9=
EXTT10=
EXTT11=
EXTT12=
EXTT13=
EXTT14=
EXTT15=
EXTT16=
EXTT17=
EXTT18=
EXTT19=
EXTT20=
PLAYORDER=
